# xmcd CD database file
#
# Track frame offsets:
#	150
#	13612
#	25952
#	41072
#	51540
#	60801
#	74105
#	82796
#	96882
#	109823
#	122274
#	134605
#	145658
#	158914
#	173321
#	184674
#	199585
#	213113
#	223361
#	239406
#	253088
#	269381
#	282167
#	292989
#	305169
#
# Disc length: 4245 seconds
#
# Revision: 0
# Processed by: cddbd v1.4PL0 Copyright (c) Steve Scherf et al.
# Submitted via: CDex 1.40Release
#
DISCID=71109319
DTITLE=Artiste variés - 25 Super Country Hits
DYEAR=1900
DGENRE=Country
TTITLE0=Souvenir d'un Veillard
TTITLE1=Prière d'une mêre
TTITLE2=Aujourd'hui
TTITLE3=Chanson a trois accord
TTITLE4=La misère
TTITLE5=Hommage a Levis Bouliane
TTITLE6=La route du sourire
TTITLE7=Ne revien plus pleurer
TTITLE8=Regarde nous
TTITLE9=La chanson la plus triste
TTITLE10=Combien faut-il de larmes
TTITLE11=Hello Jupiter Hollow
TTITLE12=Le samedi soir
TTITLE13=Que la lune est belle ce soir
TTITLE14=On dit q'un homme ça ne doit pas pleurer
TTITLE15=Blue roses
TTITLE16=Jones on the jukebox
TTITLE17=Mon cheval a deux roues
TTITLE18=J'ai dit non
TTITLE19=Guitar Cadillac
TTITLE20=Un dernier verre
TTITLE21=Les lettres de ton nom
TTITLE22=Seul dans ma chambre
TTITLE23=Les cowboys du québec
TTITLE24=La ferme du bonheur
EXTD=ID3G: 2
EXTT0=
EXTT1=
EXTT2=
EXTT3=
EXTT4=
EXTT5=
EXTT6=
EXTT7=
EXTT8=
EXTT9=
EXTT10=
EXTT11=
EXTT12=
EXTT13=
EXTT14=
EXTT15=
EXTT16=
EXTT17=
EXTT18=
EXTT19=
EXTT20=
EXTT21=
EXTT22=
EXTT23=
EXTT24=
PLAYORDER=
